<svg xmlns="http://www.w3.org/2000/svg" viewBox="0 0 900 560" role="img" aria-label="Arcade style CGPA 3.0 game illustration">
  <defs>
    <linearGradient id="screen" x1="0" x2="1" y1="0" y2="1">
      <stop offset="0" stop-color="#fff3dd"/>
      <stop offset="0.52" stop-color="#f7d7c9"/>
      <stop offset="1" stop-color="#b01831"/>
    </linearGradient>
    <linearGradient id="sky" x1="0" x2="1">
      <stop offset="0" stop-color="#f8d7a8"/>
      <stop offset="1" stop-color="#96d5c2"/>
    </linearGradient>
    <filter id="soft" x="-20%" y="-20%" width="140%" height="140%">
      <feDropShadow dx="12" dy="12" stdDeviation="0" flood-color="#b01831" flood-opacity=".12"/>
    </filter>
  </defs>
  <rect width="900" height="560" fill="#fff5e6"/>
  <rect x="24" y="24" width="852" height="512" rx="32" fill="#b01831" filter="url(#soft)"/>
  <rect x="48" y="48" width="804" height="424" rx="24" fill="url(#screen)" stroke="#231513" stroke-width="5"/>
  <rect x="78" y="82" width="744" height="336" rx="18" fill="url(#sky)" opacity=".92"/>
  <path d="M78 352 C190 252 260 318 360 238 C468 152 552 276 640 210 C714 154 768 172 822 128 L822 418 L78 418Z" fill="#2f9b70" opacity=".74"/>
  <path d="M78 386 C218 302 320 378 456 300 C568 236 664 334 822 254 L822 418 L78 418Z" fill="#b01831" opacity=".68"/>
  <path d="M146 188 h608" stroke="#fff5e6" stroke-width="8" stroke-dasharray="18 18" opacity=".54"/>
  <g fill="#fff5e6" stroke="#231513" stroke-width="4">
    <path d="M232 198 h436 l-42 82 h-352z"/>
    <path d="M276 280 h350 l-50 52 h-250z"/>
  </g>
  <text x="450" y="250" text-anchor="middle" font-family="Verdana,Arial,sans-serif" font-size="72" font-weight="900" fill="#b01831" stroke="#fff5e6" stroke-width="4" paint-order="stroke">CGPA 3.0</text>
  <text x="450" y="374" text-anchor="middle" font-family="Verdana,Arial,sans-serif" font-size="28" font-weight="900" fill="#fff5e6" stroke="#231513" stroke-width="2" paint-order="stroke">PRESS TO START</text>
  <g transform="translate(392 94)">
    <ellipse cx="58" cy="22" rx="64" ry="18" fill="#b01831"/>
    <path d="M18 20 C24 -8 92 -8 98 20 L88 40 H28Z" fill="#96d5c2" stroke="#231513" stroke-width="4"/>
    <circle cx="58" cy="12" r="8" fill="#fff5e6" stroke="#231513" stroke-width="3"/>
    <line x1="58" y1="4" x2="58" y2="-18" stroke="#231513" stroke-width="4"/>
  </g>
  <g transform="translate(94 470)">
    <rect x="0" y="0" width="712" height="32" rx="16" fill="#2f9b70" stroke="#231513" stroke-width="4"/>
    <circle cx="58" cy="16" r="13" fill="#f8d7a8"/>
    <circle cx="116" cy="16" r="13" fill="#b01831"/>
    <circle cx="174" cy="16" r="13" fill="#f8d7a8"/>
    <circle cx="232" cy="16" r="13" fill="#b01831"/>
    <circle cx="290" cy="16" r="13" fill="#f8d7a8"/>
    <circle cx="348" cy="16" r="13" fill="#b01831"/>
    <circle cx="406" cy="16" r="13" fill="#f8d7a8"/>
    <circle cx="464" cy="16" r="13" fill="#b01831"/>
    <circle cx="522" cy="16" r="13" fill="#f8d7a8"/>
    <circle cx="580" cy="16" r="13" fill="#b01831"/>
    <circle cx="638" cy="16" r="13" fill="#f8d7a8"/>
  </g>
  <g fill="#fff5e6" opacity=".86">
    <circle cx="158" cy="128" r="6"/>
    <circle cx="718" cy="110" r="5"/>
    <path d="M742 186 l10 18 18 10 -18 10 -10 18 -10 -18 -18 -10 18 -10z"/>
    <path d="M196 310 l6 10 10 6 -10 6 -6 10 -6 -10 -10 -6 10 -6z"/>
  </g>
</svg>
