<svg xmlns="http://www.w3.org/2000/svg" viewBox="0 0 720 420" role="img" aria-label="Database system illustration">
  <rect width="720" height="420" rx="34" fill="#fffaf0"/>
  <g fill="none" stroke="#a7192f" stroke-width="3" opacity=".32">
    <ellipse cx="360" cy="78" rx="118" ry="34"/>
    <path d="M242 78v78c0 19 53 34 118 34s118-15 118-34V78"/>
    <path d="M242 118c0 19 53 34 118 34s118-15 118-34"/>
    <path d="M242 156c0 19 53 34 118 34s118-15 118-34"/>
    <rect x="74" y="266" width="148" height="76" rx="18"/>
    <rect x="286" y="266" width="148" height="76" rx="18"/>
    <rect x="498" y="266" width="148" height="76" rx="18"/>
    <path d="M360 190v50M148 266c42-44 106-62 212-26M572 266c-42-44-106-62-212-26"/>
  </g>
  <g fill="#a7192f">
    <circle cx="148" cy="304" r="16"/>
    <circle cx="360" cy="304" r="16"/>
    <circle cx="572" cy="304" r="16"/>
  </g>
  <g font-family="DM Sans, Arial, sans-serif" font-weight="800" fill="#a7192f">
    <text x="302" y="88" font-size="25">DATABASE</text>
    <text x="104" y="380" font-size="24">Members</text>
    <text x="328" y="380" font-size="24">Classes</text>
    <text x="536" y="380" font-size="24">Reports</text>
  </g>
  <g fill="#a7192f" opacity=".1">
    <rect x="90" y="70" width="122" height="122" rx="36"/>
    <rect x="530" y="54" width="92" height="152" rx="46"/>
  </g>
</svg>
